<?xml version="1.0" encoding="UTF-8" standalone="no"?>
<svg
   xmlns:dc="http://purl.org/dc/elements/1.1/"
   xmlns:cc="http://creativecommons.org/ns#"
   xmlns:rdf="http://www.w3.org/1999/02/22-rdf-syntax-ns#"
   xmlns:svg="http://www.w3.org/2000/svg"
   xmlns="http://www.w3.org/2000/svg"
   viewBox="0 0 269.33334 272"
   height="272"
   width="269.33334"
   xml:space="preserve"
   id="svg2"
   version="1.1"><metadata
     id="metadata8"><rdf:RDF><cc:Work
         rdf:about=""><dc:format>image/svg+xml</dc:format><dc:type
           rdf:resource="http://purl.org/dc/dcmitype/StillImage" /></cc:Work></rdf:RDF></metadata><defs
     id="defs6"><clipPath
       id="clipPath18"
       clipPathUnits="userSpaceOnUse"><path
         id="path16"
         d="M 0,204 H 202 V 0 H 0 Z" /></clipPath></defs><g
     transform="matrix(1.3333333,0,0,-1.3333333,0,272)"
     id="g10"><g
       id="g12"><g
         clip-path="url(#clipPath18)"
         id="g14"><g
           transform="translate(101.5,168.2524)"
           id="g20"><path
             id="path22"
             style="fill:#f46b23;fill-opacity:1;fill-rule:nonzero;stroke:none"
             d="m 0,0 c -37.14,0 -67.248,-30.108 -67.248,-67.248 0,-37.141 30.108,-67.249 67.248,-67.249 37.14,0 67.248,30.108 67.248,67.249 C 67.248,-30.108 37.14,0 0,0 m 95.995,-67.248 c 0,-53.017 -42.978,-95.996 -95.995,-95.996 -53.017,0 -95.995,42.979 -95.995,95.996 0,53.016 42.978,95.995 95.995,95.995 53.017,0 95.995,-42.979 95.995,-95.995" /></g><g
           transform="translate(31.0517,80.6802)"
           id="g24"><path
             id="path26"
             style="fill:#ffffff;fill-opacity:1;fill-rule:nonzero;stroke:none"
             d="m 0,0 1.18,-3.133 -7.71,-9.868 10.008,3.767 1.18,-3.134 -15.211,-5.725 -1.178,3.134 7.726,9.885 -10.027,-3.775 -1.176,3.123 z" /></g><g
           transform="translate(23.87,86.1987)"
           id="g28"><path
             id="path30"
             style="fill:#ffffff;fill-opacity:1;fill-rule:nonzero;stroke:none"
             d="M 0,0 -0.607,4.017 -6.316,1.089 Z m 1.939,5.316 0.877,-5.805 3.477,-0.604 0.532,-3.52 -16.971,3.555 -0.464,3.068 15.161,8.442 0.532,-3.521 z" /></g><g
           transform="translate(24.7314,102.75)"
           id="g32"><path
             id="path34"
             style="fill:#ffffff;fill-opacity:1;fill-rule:nonzero;stroke:none"
             d="m 0,0 -12.087,4.104 0.129,3.726 16.046,-6.218 -0.121,-3.491 -16.436,-5.072 0.128,3.715 z" /></g><g
           transform="translate(24.5741,121.8711)"
           id="g36"><path
             id="path38"
             style="fill:#ffffff;fill-opacity:1;fill-rule:nonzero;stroke:none"
             d="m 0,0 -1.389,-6.277 4.25,-0.941 1.631,7.366 2.627,-0.581 -2.355,-10.636 -15.868,3.514 2.351,10.614 2.649,-0.587 -1.628,-7.345 3.782,-0.837 1.39,6.277 z" /></g><g
           transform="translate(35.2118,135.2617)"
           id="g40"><path
             id="path42"
             style="fill:#ffffff;fill-opacity:1;fill-rule:nonzero;stroke:none"
             d="M 0,0 C 0.426,-0.838 0.605,-1.842 0.538,-3.011 0.47,-4.18 0.173,-5.38 -0.354,-6.611 -0.908,-7.904 -1.676,-8.917 -2.658,-9.65 c -0.983,-0.733 -2.123,-1.134 -3.425,-1.204 -1.3,-0.071 -2.679,0.198 -4.135,0.806 l -1.015,0.435 c -1.491,0.639 -2.674,1.443 -3.549,2.413 -0.876,0.971 -1.401,2.053 -1.573,3.248 -0.171,1.195 0.014,2.429 0.56,3.701 0.759,1.771 1.774,2.975 3.047,3.612 1.273,0.637 2.755,0.701 4.448,0.195 L -9.583,0.56 c -0.914,0.229 -1.67,0.195 -2.267,-0.104 -0.596,-0.298 -1.071,-0.858 -1.422,-1.679 -0.45,-1.047 -0.397,-2.012 0.155,-2.896 0.553,-0.884 1.602,-1.662 3.152,-2.334 l 0.955,-0.409 c 1.566,-0.671 2.876,-0.88 3.932,-0.628 1.055,0.252 1.829,0.953 2.321,2.102 0.496,1.156 0.602,2.086 0.32,2.789 l -2.574,1.103 -1.2,-2.801 -2.268,0.972 2.518,5.879 z" /></g><g
           transform="translate(35.498,143.0645)"
           id="g44"><path
             id="path46"
             style="fill:#ffffff;fill-opacity:1;fill-rule:nonzero;stroke:none"
             d="M 0,0 2.317,3.337 -3.844,5.129 Z M 5.061,2.532 1.713,-2.29 3.826,-5.116 1.795,-8.041 -8.103,6.198 -6.332,8.747 10.485,4.473 8.455,1.549 Z" /></g><g
           transform="translate(39.619,160.0884)"
           id="g48"><path
             id="path50"
             style="fill:#ffffff;fill-opacity:1;fill-rule:nonzero;stroke:none"
             d="m 0,0 7.526,-7.814 1.166,1.122 c 0.944,0.909 1.368,1.911 1.272,3.008 -0.095,1.096 -0.69,2.223 -1.783,3.38 L 7.584,0.315 C 6.437,1.505 5.323,2.169 4.239,2.308 3.155,2.447 2.139,2.06 1.189,1.146 Z M 6.98,-12.075 -4.293,-0.37 -0.69,3.099 C 0.338,4.09 1.482,4.745 2.74,5.064 3.999,5.382 5.268,5.333 6.547,4.917 7.825,4.501 8.988,3.749 10.036,2.661 l 0.519,-0.538 c 1.048,-1.089 1.757,-2.272 2.124,-3.549 0.368,-1.278 0.369,-2.542 0.004,-3.793 -0.367,-1.251 -1.058,-2.372 -2.077,-3.364 z" /></g><g
           transform="translate(60.7108,170.1665)"
           id="g52"><path
             id="path54"
             style="fill:#ffffff;fill-opacity:1;fill-rule:nonzero;stroke:none"
             d="M 0,0 C -0.914,1.438 -1.865,2.369 -2.854,2.79 -3.845,3.21 -4.816,3.117 -5.771,2.511 -6.72,1.909 -7.218,1.076 -7.265,0.01 c -0.047,-1.065 0.38,-2.312 1.279,-3.742 l 0.424,-0.67 c 0.889,-1.401 1.836,-2.324 2.841,-2.77 1.006,-0.446 1.993,-0.362 2.961,0.252 0.948,0.602 1.442,1.437 1.477,2.504 0.037,1.068 -0.394,2.317 -1.293,3.747 z M 3.26,1.196 C 4.116,-0.155 4.629,-1.491 4.798,-2.812 4.966,-4.132 4.781,-5.351 4.243,-6.468 3.704,-7.585 2.861,-8.508 1.711,-9.238 0.573,-9.96 -0.614,-10.331 -1.854,-10.35 c -1.238,-0.02 -2.424,0.323 -3.559,1.026 -1.134,0.704 -2.122,1.714 -2.966,3.029 l -0.432,0.678 c -0.856,1.351 -1.367,2.695 -1.533,4.031 -0.164,1.336 0.024,2.561 0.564,3.675 0.541,1.114 1.383,2.034 2.525,2.76 1.144,0.725 2.334,1.095 3.572,1.109 1.238,0.015 2.426,-0.337 3.565,-1.055 C 1.021,4.185 2.017,3.153 2.87,1.809 Z" /></g><g
           transform="translate(69.7196,174.7598)"
           id="g56"><path
             id="path58"
             style="fill:#ffffff;fill-opacity:1;fill-rule:nonzero;stroke:none"
             d="M 0,0 2.524,0.964 C 3.31,1.264 3.842,1.696 4.119,2.26 4.397,2.824 4.403,3.458 4.135,4.16 3.861,4.875 3.443,5.361 2.88,5.616 2.316,5.871 1.614,5.838 0.773,5.517 L -1.74,4.557 Z M 3.46,-1.582 0.967,-2.534 3.091,-8.091 -0.037,-9.286 -5.836,5.896 -0.194,8.05 C 1.6,8.735 3.136,8.864 4.413,8.436 5.691,8.008 6.61,7.064 7.167,5.604 7.562,4.568 7.669,3.62 7.483,2.757 7.3,1.894 6.831,1.083 6.077,0.325 l 5.654,-4.95 0.056,-0.146 -3.357,-1.282 z" /></g><g
           transform="translate(91.0321,178.8872)"
           id="g60"><path
             id="path62"
             style="fill:#ffffff;fill-opacity:1;fill-rule:nonzero;stroke:none"
             d="m 0,0 -6.318,-1.188 0.803,-4.278 7.416,1.394 0.496,-2.643 -10.704,-2.014 -3.004,15.972 10.684,2.009 0.502,-2.666 -7.394,-1.39 0.715,-3.806 6.32,1.188 z" /></g><g
           transform="translate(103.1357,176.6289)"
           id="g64"><path
             id="path66"
             style="fill:#ffffff;fill-opacity:1;fill-rule:nonzero;stroke:none"
             d="m 0,0 c -0.005,0.633 -0.233,1.116 -0.685,1.45 -0.449,0.334 -1.256,0.682 -2.42,1.046 -1.166,0.363 -2.088,0.724 -2.77,1.081 -1.855,0.978 -2.792,2.311 -2.811,4 -0.009,0.878 0.231,1.664 0.719,2.358 0.488,0.693 1.192,1.238 2.114,1.634 0.922,0.397 1.96,0.602 3.114,0.614 1.161,0.012 2.197,-0.187 3.108,-0.598 0.913,-0.411 1.624,-0.997 2.135,-1.758 0.51,-0.761 0.77,-1.629 0.78,-2.603 L -0.064,7.188 C -0.071,7.932 -0.312,8.508 -0.785,8.917 -1.259,9.324 -1.918,9.524 -2.768,9.515 -3.585,9.506 -4.22,9.327 -4.67,8.976 -5.121,8.625 -5.343,8.167 -5.336,7.602 -5.331,7.073 -5.061,6.633 -4.525,6.282 -3.988,5.93 -3.202,5.604 -2.164,5.302 -0.254,4.749 1.142,4.053 2.021,3.214 2.9,2.375 3.347,1.323 3.36,0.058 3.374,-1.348 2.854,-2.457 1.799,-3.268 0.742,-4.079 -0.685,-4.494 -2.486,-4.513 c -1.248,-0.013 -2.39,0.203 -3.422,0.651 -1.03,0.446 -1.821,1.065 -2.368,1.855 -0.548,0.791 -0.828,1.711 -0.839,2.76 l 3.359,0.035 c 0.019,-1.793 1.1,-2.679 3.242,-2.656 0.796,0.009 1.416,0.177 1.86,0.505 C -0.211,-1.034 0.007,-0.58 0,0" /></g><g
           transform="translate(127.1103,173.5469)"
           id="g68"><path
             id="path70"
             style="fill:#ffffff;fill-opacity:1;fill-rule:nonzero;stroke:none"
             d="m 0,0 c -0.564,-1.66 -1.537,-2.828 -2.917,-3.506 -1.381,-0.678 -2.992,-0.776 -4.835,-0.295 -2.017,0.527 -3.424,1.619 -4.226,3.279 -0.8,1.658 -0.892,3.672 -0.273,6.041 l 0.25,0.961 c 0.396,1.512 1.009,2.774 1.844,3.787 0.833,1.013 1.825,1.698 2.975,2.055 1.151,0.357 2.382,0.365 3.692,0.022 C -1.676,11.87 -0.341,11.002 0.514,9.741 1.369,8.479 1.653,6.948 1.367,5.146 l -3.24,0.846 c 0.186,1.036 0.097,1.846 -0.271,2.43 C -2.51,9.006 -3.189,9.428 -4.183,9.688 -5.264,9.969 -6.173,9.793 -6.911,9.16 -7.648,8.525 -8.239,7.397 -8.679,5.774 L -8.988,4.586 c -0.444,-1.699 -0.51,-3.008 -0.201,-3.928 0.309,-0.919 1.019,-1.523 2.127,-1.813 1.001,-0.261 1.807,-0.228 2.42,0.101 0.614,0.328 1.08,0.962 1.402,1.9 z" /></g><g
           transform="translate(139.7675,171.002)"
           id="g72"><path
             id="path74"
             style="fill:#ffffff;fill-opacity:1;fill-rule:nonzero;stroke:none"
             d="M 0,0 C 0.753,1.528 1.051,2.825 0.896,3.889 0.738,4.953 0.153,5.734 -0.862,6.234 -1.87,6.73 -2.841,6.721 -3.774,6.206 -4.709,5.69 -5.552,4.677 -6.305,3.165 L -6.654,2.454 c -0.732,-1.489 -1.027,-2.779 -0.883,-3.87 0.143,-1.09 0.729,-1.889 1.757,-2.395 1.009,-0.496 1.977,-0.481 2.907,0.044 0.931,0.525 1.772,1.543 2.524,3.056 z M 2.72,-2.159 C 2.015,-3.595 1.141,-4.729 0.102,-5.561 -0.939,-6.392 -2.076,-6.87 -3.309,-6.992 c -1.234,-0.123 -2.462,0.117 -3.684,0.718 -1.208,0.595 -2.143,1.416 -2.806,2.463 -0.662,1.047 -0.988,2.238 -0.978,3.573 0.009,1.334 0.356,2.704 1.04,4.11 l 0.355,0.721 c 0.706,1.435 1.587,2.572 2.641,3.408 1.054,0.837 2.199,1.315 3.429,1.435 C -2.078,9.555 -0.855,9.315 0.36,8.718 1.575,8.12 2.511,7.296 3.169,6.247 3.826,5.198 4.144,4 4.125,2.654 4.105,1.308 3.743,-0.08 3.04,-1.508 Z" /></g><g
           transform="translate(154.2118,170.9277)"
           id="g76"><path
             id="path78"
             style="fill:#ffffff;fill-opacity:1;fill-rule:nonzero;stroke:none"
             d="m 0,0 -4.293,-11.744 10.709,6.438 3.39,-2.802 -10.356,-12.524 -2.589,2.14 2.83,3.424 5.145,5.696 -11.098,-6.538 -1.771,1.465 4.337,12.113 -4.62,-6.115 -2.831,-3.423 -2.582,2.134 10.356,12.524 z" /></g><g
           transform="translate(163.6298,151.0547)"
           id="g80"><path
             id="path82"
             style="fill:#ffffff;fill-opacity:1;fill-rule:nonzero;stroke:none"
             d="m 0,0 1.815,-2.377 c 0.539,-0.704 1.115,-1.114 1.727,-1.23 0.613,-0.118 1.228,0.059 1.842,0.529 0.634,0.483 1.002,1.06 1.108,1.731 0.106,0.671 -0.087,1.339 -0.576,2.004 L 4.054,3.096 Z M -2.156,-1.647 -6.706,-5.123 -8.739,-2.462 4.176,7.404 8.023,2.366 C 8.765,1.396 9.239,0.407 9.446,-0.6 9.654,-1.607 9.583,-2.558 9.232,-3.454 8.881,-4.349 8.29,-5.115 7.456,-5.752 6.19,-6.719 4.861,-7.048 3.47,-6.739 c -1.393,0.308 -2.674,1.228 -3.843,2.76 z" /></g><g
           transform="translate(169.5575,138.0518)"
           id="g84"><path
             id="path86"
             style="fill:#ffffff;fill-opacity:1;fill-rule:nonzero;stroke:none"
             d="m 0,0 1.876,-3.604 4.453,4.622 z m -0.112,-5.658 -2.711,5.208 -3.486,-0.557 -1.643,3.158 17.207,2.14 1.433,-2.753 -11.606,-12.9 -1.643,3.158 z" /></g><g
           transform="translate(184.8603,119.4487)"
           id="g88"><path
             id="path90"
             style="fill:#ffffff;fill-opacity:1;fill-rule:nonzero;stroke:none"
             d="m 0,0 -1.487,4.751 -12.922,-4.042 -0.998,3.196 12.921,4.042 -1.467,4.687 2.589,0.81 L 2.588,0.81 Z" /></g><g
           transform="translate(192.6718,115.2559)"
           id="g92"><path
             id="path94"
             style="fill:#ffffff;fill-opacity:1;fill-rule:nonzero;stroke:none"
             d="m 0,0 0.638,-3.458 -3.963,2.414 -0.477,2.579 z m -20.108,-4.762 -0.607,3.293 15.983,2.946 0.606,-3.293 z" /></g><g
           transform="translate(177.2899,102.0728)"
           id="g96"><path
             id="path98"
             style="fill:#ffffff;fill-opacity:1;fill-rule:nonzero;stroke:none"
             d="M 0,0 12.318,-3.347 12.42,-7.073 -3.979,-1.862 -4.076,1.63 12.014,7.71 12.117,3.995 Z" /></g><g
           transform="translate(178.6386,83.0078)"
           id="g100"><path
             id="path102"
             style="fill:#ffffff;fill-opacity:1;fill-rule:nonzero;stroke:none"
             d="m 0,0 0.995,6.351 -4.3,0.675 -1.169,-7.454 -2.658,0.416 1.689,10.762 16.054,-2.518 -1.684,-10.74 -2.68,0.421 1.167,7.432 -3.828,0.6 -0.995,-6.352 z" /></g><g
           transform="translate(169.9325,78.2026)"
           id="g104"><path
             id="path106"
             style="fill:#ffffff;fill-opacity:1;fill-rule:nonzero;stroke:none"
             d="m 0,0 0.94,3.214 15.599,-4.561 -0.94,-3.214 z" /></g><g
           transform="translate(169.7431,66.2588)"
           id="g108"><path
             id="path110"
             style="fill:#ffffff;fill-opacity:1;fill-rule:nonzero;stroke:none"
             d="M 0,0 C 0.576,-0.258 1.111,-0.253 1.602,0.017 2.094,0.286 2.747,0.874 3.565,1.78 4.382,2.686 5.095,3.374 5.704,3.843 7.367,5.121 8.97,5.415 10.513,4.725 11.314,4.367 11.928,3.821 12.354,3.088 12.781,2.355 12.981,1.487 12.957,0.483 12.932,-0.52 12.684,-1.548 12.212,-2.602 11.738,-3.661 11.125,-4.519 10.371,-5.176 9.616,-5.833 8.786,-6.234 7.882,-6.38 6.977,-6.526 6.079,-6.4 5.189,-6.002 l 1.367,3.057 c 0.68,-0.304 1.303,-0.326 1.873,-0.067 0.567,0.26 1.025,0.777 1.371,1.551 0.335,0.747 0.436,1.399 0.305,1.954 C 9.976,1.049 9.651,1.442 9.135,1.673 8.653,1.889 8.141,1.826 7.598,1.486 7.054,1.147 6.429,0.568 5.722,-0.248 4.419,-1.753 3.206,-2.73 2.075,-3.178 c -1.13,-0.448 -2.272,-0.415 -3.427,0.102 -1.284,0.574 -2.073,1.51 -2.369,2.808 -0.296,1.298 -0.076,2.769 0.658,4.413 0.511,1.141 1.185,2.086 2.022,2.837 0.837,0.75 1.729,1.21 2.676,1.377 0.947,0.167 1.899,0.037 2.857,-0.391 L 3.12,4.9 C 1.483,5.633 0.228,5.021 -0.647,3.064 -0.972,2.338 -1.078,1.705 -0.965,1.165 -0.852,0.625 -0.529,0.237 0,0" /></g></g></g></g></svg>