<?xml version="1.0" encoding="UTF-8" standalone="no"?>
<svg
   xmlns:dc="http://purl.org/dc/elements/1.1/"
   xmlns:cc="http://creativecommons.org/ns#"
   xmlns:rdf="http://www.w3.org/1999/02/22-rdf-syntax-ns#"
   xmlns:svg="http://www.w3.org/2000/svg"
   xmlns="http://www.w3.org/2000/svg"
   viewBox="0 0 269.33334 272"
   height="272"
   width="269.33334"
   xml:space="preserve"
   id="svg2"
   version="1.1"><metadata
     id="metadata8"><rdf:RDF><cc:Work
         rdf:about=""><dc:format>image/svg+xml</dc:format><dc:type
           rdf:resource="http://purl.org/dc/dcmitype/StillImage" /></cc:Work></rdf:RDF></metadata><defs
     id="defs6"><clipPath
       id="clipPath18"
       clipPathUnits="userSpaceOnUse"><path
         id="path16"
         d="M 0,204 H 202 V 0 H 0 Z" /></clipPath></defs><g
     transform="matrix(1.3333333,0,0,-1.3333333,0,272)"
     id="g10"><g
       id="g12"><g
         clip-path="url(#clipPath18)"
         id="g14"><g
           transform="translate(101.5,168.2524)"
           id="g20"><path
             id="path22"
             style="fill:#d01c2f;fill-opacity:1;fill-rule:nonzero;stroke:none"
             d="m 0,0 c -37.14,0 -67.248,-30.108 -67.248,-67.248 0,-37.141 30.108,-67.249 67.248,-67.249 37.14,0 67.248,30.108 67.248,67.249 C 67.248,-30.108 37.14,0 0,0 m 95.995,-67.248 c 0,-53.017 -42.978,-95.996 -95.995,-95.996 -53.017,0 -95.995,42.979 -95.995,95.996 0,53.016 42.978,95.995 95.995,95.995 53.017,0 95.995,-42.979 95.995,-95.995" /></g><g
           transform="translate(23.3861,77.6284)"
           id="g24"><path
             id="path26"
             style="fill:#ffffff;fill-opacity:1;fill-rule:nonzero;stroke:none"
             d="M 0,0 -0.734,2.9 C -0.951,3.758 -1.32,4.362 -1.838,4.71 -2.355,5.059 -2.99,5.139 -3.74,4.949 -4.512,4.753 -5.078,4.368 -5.439,3.793 -5.801,3.218 -5.887,2.529 -5.699,1.725 l 0.752,-2.976 z M 2.629,0.665 8.18,2.069 9,-1.177 -6.754,-5.163 -8.309,0.984 c -0.298,1.183 -0.345,2.278 -0.14,3.286 0.205,1.007 0.646,1.854 1.32,2.539 0.676,0.685 1.522,1.155 2.539,1.413 1.543,0.391 2.895,0.17 4.053,-0.661 1.156,-0.832 1.973,-2.182 2.445,-4.05 z" /></g><g
           transform="translate(20.3431,92.9277)"
           id="g28"><path
             id="path30"
             style="fill:#ffffff;fill-opacity:1;fill-rule:nonzero;stroke:none"
             d="M 0,0 -0.164,2.696 C -0.215,3.535 -0.467,4.172 -0.924,4.607 -1.379,5.041 -1.98,5.236 -2.73,5.19 -3.496,5.144 -4.084,4.89 -4.496,4.429 -4.908,3.968 -5.086,3.288 -5.031,2.39 l 0.162,-2.685 z M 2.545,2.827 2.707,0.164 8.645,0.524 8.848,-2.818 -7.373,-3.802 -7.74,2.225 c -0.115,1.917 0.22,3.421 1.011,4.512 0.792,1.092 1.967,1.685 3.528,1.78 C -2.094,8.584 -1.156,8.4 -0.389,7.966 0.379,7.532 1.012,6.841 1.51,5.895 L 7.926,9.807 8.082,9.816 8.299,6.229 Z" /></g><g
           transform="translate(21.5365,114.9712)"
           id="g32"><path
             id="path34"
             style="fill:#ffffff;fill-opacity:1;fill-rule:nonzero;stroke:none"
             d="M 0,0 C -1.689,0.241 -3.014,0.122 -3.975,-0.357 -4.938,-0.836 -5.5,-1.635 -5.66,-2.755 c -0.158,-1.112 0.152,-2.032 0.931,-2.76 0.78,-0.728 2.004,-1.214 3.676,-1.46 l 0.783,-0.112 c 1.643,-0.235 2.961,-0.115 3.954,0.36 0.992,0.475 1.568,1.279 1.73,2.414 0.158,1.112 -0.156,2.029 -0.943,2.75 -0.787,0.721 -2.016,1.205 -3.688,1.451 z M 1.207,3.255 C 2.791,3.029 4.139,2.551 5.254,1.821 6.367,1.09 7.172,0.158 7.672,-0.977 8.172,-2.112 8.326,-3.354 8.133,-4.702 7.943,-6.035 7.451,-7.179 6.662,-8.133 5.871,-9.088 4.842,-9.767 3.568,-10.172 c -1.271,-0.405 -2.681,-0.5 -4.228,-0.287 l -0.797,0.114 c -1.582,0.225 -2.936,0.71 -4.059,1.453 -1.123,0.743 -1.933,1.682 -2.427,2.816 -0.496,1.134 -0.649,2.371 -0.457,3.712 0.191,1.341 0.683,2.487 1.476,3.437 0.795,0.95 1.834,1.625 3.119,2.024 1.287,0.399 2.717,0.486 4.293,0.261 z" /></g><g
           transform="translate(33.3392,131.4873)"
           id="g36"><path
             id="path38"
             style="fill:#ffffff;fill-opacity:1;fill-rule:nonzero;stroke:none"
             d="m 0,0 c 0.471,-0.812 0.707,-1.805 0.705,-2.976 -0.002,-1.17 -0.23,-2.386 -0.689,-3.645 -0.481,-1.321 -1.19,-2.376 -2.129,-3.163 -0.94,-0.787 -2.055,-1.252 -3.352,-1.395 -1.295,-0.143 -2.685,0.048 -4.174,0.573 l -1.039,0.377 c -1.523,0.554 -2.75,1.291 -3.677,2.209 -0.93,0.92 -1.514,1.971 -1.754,3.155 -0.237,1.183 -0.121,2.425 0.351,3.726 0.658,1.811 1.604,3.071 2.84,3.778 1.234,0.707 2.711,0.856 4.43,0.445 L -9.602,0.021 c -0.923,0.177 -1.677,0.1 -2.255,-0.231 -0.581,-0.332 -1.022,-0.918 -1.329,-1.757 -0.388,-1.07 -0.281,-2.031 0.319,-2.883 0.601,-0.851 1.693,-1.569 3.279,-2.153 l 0.977,-0.354 c 1.601,-0.582 2.922,-0.718 3.961,-0.407 1.039,0.312 1.771,1.055 2.199,2.23 0.43,1.181 0.484,2.116 0.162,2.803 l -2.633,0.956 -1.039,-2.864 -2.32,0.843 2.185,6.011 z" /></g><g
           transform="translate(30.5228,139.8926)"
           id="g40"><path
             id="path42"
             style="fill:#ffffff;fill-opacity:1;fill-rule:nonzero;stroke:none"
             d="M 0,0 1.404,2.307 C 1.842,3.025 1.998,3.692 1.873,4.31 1.746,4.926 1.363,5.43 0.721,5.82 0.066,6.219 -0.561,6.346 -1.164,6.203 -1.764,6.059 -2.299,5.603 -2.768,4.834 L -4.166,2.536 Z M 3.705,0.869 2.318,-1.41 7.4,-4.503 5.658,-7.364 -8.223,1.086 -5.084,6.244 c 0.998,1.64 2.133,2.682 3.406,3.127 C -0.404,9.816 0.898,9.632 2.234,8.82 3.182,8.243 3.846,7.558 4.229,6.763 4.611,5.968 4.736,5.04 4.605,3.979 L 12.107,3.53 12.24,3.448 10.371,0.378 Z" /></g><g
           transform="translate(41.89,151.4424)"
           id="g44"><path
             id="path46"
             style="fill:#ffffff;fill-opacity:1;fill-rule:nonzero;stroke:none"
             d="M 0,0 2.748,2.994 -3.119,5.601 Z M 5.357,1.828 1.389,-2.5 3.104,-5.585 0.695,-8.209 -7.193,7.233 -5.096,9.52 10.992,3.02 8.586,0.396 Z" /></g><g
           transform="translate(47.7845,170.874)"
           id="g48"><path
             id="path50"
             style="fill:#ffffff;fill-opacity:1;fill-rule:nonzero;stroke:none"
             d="m 0,0 10.082,-7.396 -3.199,12.08 3.637,2.474 9.142,-13.435 -2.777,-1.89 -2.5,3.672 -4.037,6.528 3.187,-12.479 -1.902,-1.294 -10.422,7.541 4.584,-6.142 2.5,-3.673 -2.77,-1.883 -9.142,13.435 z" /></g><g
           transform="translate(71.3529,172.5542)"
           id="g52"><path
             id="path54"
             style="fill:#ffffff;fill-opacity:1;fill-rule:nonzero;stroke:none"
             d="m 0,0 3.799,1.438 -4.063,4.966 z m 5.605,-0.779 -5.49,-2.078 0.141,-3.526 -3.33,-1.261 -0.094,17.341 2.9,1.098 11.444,-13.046 -3.332,-1.26 z" /></g><g
           transform="translate(90.9466,175.9282)"
           id="g56"><path
             id="path58"
             style="fill:#ffffff;fill-opacity:1;fill-rule:nonzero;stroke:none"
             d="m 0,0 c -0.105,0.624 -0.406,1.065 -0.902,1.324 -0.498,0.259 -1.35,0.478 -2.557,0.655 -1.207,0.176 -2.174,0.388 -2.904,0.635 -1.987,0.675 -3.119,1.844 -3.401,3.511 -0.146,0.865 -0.035,1.678 0.34,2.44 0.373,0.761 0.985,1.41 1.832,1.946 0.848,0.536 1.842,0.901 2.979,1.093 1.146,0.193 2.201,0.158 3.166,-0.104 0.965,-0.263 1.758,-0.731 2.383,-1.403 C 1.559,9.425 1.951,8.609 2.113,7.648 l -3.3,-0.559 C -1.312,7.823 -1.641,8.354 -2.17,8.683 -2.703,9.012 -3.387,9.106 -4.223,8.964 -5.029,8.828 -5.629,8.551 -6.018,8.134 -6.408,7.717 -6.555,7.23 -6.461,6.672 -6.373,6.151 -6.035,5.759 -5.453,5.496 -4.867,5.232 -4.039,5.033 -2.969,4.897 -0.994,4.65 0.492,4.181 1.492,3.49 2.492,2.799 3.1,1.83 3.311,0.583 3.543,-0.804 3.203,-1.98 2.287,-2.947 c -0.914,-0.966 -2.26,-1.599 -4.035,-1.9 -1.234,-0.209 -2.395,-0.173 -3.484,0.107 -1.088,0.28 -1.965,0.767 -2.629,1.462 -0.666,0.695 -1.086,1.56 -1.26,2.594 l 3.312,0.561 c 0.299,-1.768 1.506,-2.473 3.62,-2.116 0.783,0.133 1.369,0.397 1.755,0.79 C -0.047,-1.055 0.098,-0.572 0,0" /></g><g
           transform="translate(115.1341,176.7002)"
           id="g60"><path
             id="path62"
             style="fill:#ffffff;fill-opacity:1;fill-rule:nonzero;stroke:none"
             d="m 0,0 c -0.291,-1.729 -1.064,-3.039 -2.318,-3.929 -1.254,-0.889 -2.83,-1.245 -4.725,-1.065 -2.076,0.197 -3.641,1.05 -4.697,2.559 -1.057,1.509 -1.469,3.483 -1.237,5.92 l 0.092,0.989 c 0.149,1.555 0.553,2.9 1.213,4.033 0.66,1.133 1.529,1.969 2.609,2.505 1.079,0.537 2.293,0.741 3.641,0.613 1.867,-0.177 3.322,-0.82 4.369,-1.928 C -0.008,8.589 0.52,7.122 0.525,5.298 L -2.809,5.614 C -2.791,6.667 -3.01,7.451 -3.465,7.969 -3.92,8.487 -4.66,8.795 -5.682,8.892 -6.793,8.997 -7.662,8.678 -8.289,7.934 -8.918,7.19 -9.316,5.981 -9.492,4.309 L -9.607,3.087 c -0.166,-1.749 -0.024,-3.052 0.431,-3.909 0.451,-0.858 1.248,-1.341 2.391,-1.449 1.029,-0.098 1.82,0.064 2.371,0.486 0.553,0.423 0.912,1.123 1.08,2.101 z" /></g><g
           transform="translate(128.0306,176.2085)"
           id="g64"><path
             id="path66"
             style="fill:#ffffff;fill-opacity:1;fill-rule:nonzero;stroke:none"
             d="M 0,0 C 0.498,1.629 0.586,2.957 0.262,3.982 -0.062,5.007 -0.764,5.686 -1.846,6.017 -2.92,6.346 -3.877,6.182 -4.717,5.525 -5.557,4.868 -6.227,3.733 -6.729,2.12 l -0.23,-0.757 c -0.488,-1.587 -0.574,-2.907 -0.258,-3.961 0.315,-1.054 1.02,-1.749 2.117,-2.084 1.075,-0.329 2.028,-0.161 2.864,0.506 0.834,0.666 1.502,1.805 2.004,3.419 z M 3.029,-1.699 C 2.559,-3.228 1.879,-4.486 0.984,-5.473 0.09,-6.46 -0.957,-7.112 -2.154,-7.43 c -1.2,-0.318 -2.45,-0.277 -3.75,0.122 -1.289,0.395 -2.342,1.057 -3.162,1.985 -0.823,0.928 -1.334,2.052 -1.538,3.371 -0.201,1.32 -0.078,2.727 0.374,4.223 l 0.234,0.769 c 0.469,1.529 1.158,2.792 2.066,3.786 0.907,0.994 1.959,1.648 3.157,1.962 1.197,0.314 2.443,0.273 3.738,-0.124 C 0.262,8.267 1.316,7.603 2.133,6.672 2.947,5.741 3.453,4.61 3.648,3.277 3.844,1.945 3.707,0.518 3.24,-1.004 Z" /></g><g
           transform="translate(142.3118,178.416)"
           id="g68"><path
             id="path70"
             style="fill:#ffffff;fill-opacity:1;fill-rule:nonzero;stroke:none"
             d="m 0,0 -2.393,-12.273 9.565,8.043 3.789,-2.234 -8.256,-13.998 -2.894,1.707 2.257,3.826 4.184,6.435 -9.93,-8.203 -1.98,1.168 2.377,12.644 -3.602,-6.765 -2.258,-3.827 -2.882,1.701 8.255,13.999 z" /></g><g
           transform="translate(154.7239,160.2852)"
           id="g72"><path
             id="path74"
             style="fill:#ffffff;fill-opacity:1;fill-rule:nonzero;stroke:none"
             d="m 0,0 2.17,-2.06 c 0.643,-0.61 1.273,-0.924 1.9,-0.942 0.623,-0.018 1.201,0.253 1.735,0.814 0.549,0.578 0.822,1.206 0.82,1.885 C 6.623,0.376 6.326,1.005 5.74,1.585 L 3.514,3.698 Z M -1.867,-1.967 -5.811,-6.118 -8.238,-3.813 2.953,7.971 7.551,3.605 C 8.436,2.765 9.059,1.864 9.424,0.902 9.789,-0.06 9.867,-1.01 9.662,-1.95 9.457,-2.89 8.994,-3.739 8.271,-4.5 7.176,-5.655 5.916,-6.19 4.492,-6.105 3.07,-6.021 1.658,-5.315 0.262,-3.988 Z" /></g><g
           transform="translate(162.6439,148.3838)"
           id="g76"><path
             id="path78"
             style="fill:#ffffff;fill-opacity:1;fill-rule:nonzero;stroke:none"
             d="M 0,0 2.428,-3.258 6.084,2.015 Z M 0.793,-5.604 -2.715,-0.896 -6.066,-2.002 -8.195,0.854 8.451,5.713 10.307,3.225 0.91,-11.363 -1.219,-8.508 Z" /></g><g
           transform="translate(180.7337,132.46)"
           id="g80"><path
             id="path82"
             style="fill:#ffffff;fill-opacity:1;fill-rule:nonzero;stroke:none"
             d="m 0,0 -2.229,4.452 -12.107,-6.06 -1.498,2.995 12.107,6.059 -2.199,4.392 2.428,1.214 5.924,-11.838 z" /></g><g
           transform="translate(189.2044,129.2622)"
           id="g84"><path
             id="path86"
             style="fill:#ffffff;fill-opacity:1;fill-rule:nonzero;stroke:none"
             d="m 0,0 1.129,-3.33 -4.27,1.817 -0.841,2.484 z m -19.211,-7.61 -1.074,3.171 15.389,5.218 1.076,-3.171 z" /></g><g
           transform="translate(175.9974,114.1084)"
           id="g88"><path
             id="path90"
             style="fill:#ffffff;fill-opacity:1;fill-rule:nonzero;stroke:none"
             d="m 0,0 12.689,-1.378 0.686,-3.664 -17.014,2.58 -0.642,3.434 14.941,8.524 0.682,-3.654 z" /></g><g
           transform="translate(180.3372,95.4629)"
           id="g92"><path
             id="path94"
             style="fill:#ffffff;fill-opacity:1;fill-rule:nonzero;stroke:none"
             d="M 0,0 -0.025,6.429 -4.379,6.412 -4.348,-1.134 -7.037,-1.145 -7.082,9.749 9.17,9.814 9.213,-1.057 6.502,-1.067 6.471,6.455 2.598,6.439 2.623,0.011 Z" /></g><g
           transform="translate(172.5189,89.3477)"
           id="g96"><path
             id="path98"
             style="fill:#ffffff;fill-opacity:1;fill-rule:nonzero;stroke:none"
             d="m 0,0 0.412,3.323 16.127,-2 L 16.129,-2 Z" /></g><g
           transform="translate(174.2435,77.5176)"
           id="g100"><path
             id="path102"
             style="fill:#ffffff;fill-opacity:1;fill-rule:nonzero;stroke:none"
             d="M 0,0 C 0.609,-0.162 1.135,-0.072 1.578,0.272 2.021,0.617 2.572,1.302 3.234,2.327 3.896,3.352 4.49,4.145 5.016,4.705 6.455,6.231 7.99,6.777 9.623,6.343 10.471,6.117 11.164,5.676 11.703,5.021 12.24,4.366 12.576,3.541 12.713,2.546 12.848,1.551 12.768,0.497 12.471,-0.618 12.172,-1.74 11.701,-2.685 11.063,-3.454 10.422,-4.223 9.668,-4.752 8.797,-5.04 7.928,-5.328 7.023,-5.347 6.08,-5.096 l 0.861,3.236 c 0.719,-0.192 1.338,-0.114 1.858,0.233 0.521,0.346 0.89,0.93 1.107,1.749 C 10.117,0.914 10.113,1.573 9.896,2.1 9.68,2.628 9.297,2.964 8.75,3.11 8.24,3.246 7.744,3.103 7.262,2.681 6.779,2.259 6.254,1.588 5.687,0.669 4.643,-1.024 3.598,-2.183 2.555,-2.806 1.51,-3.429 0.377,-3.577 -0.844,-3.252 c -1.359,0.362 -2.289,1.16 -2.789,2.394 -0.498,1.234 -0.515,2.721 -0.053,4.462 0.323,1.208 0.836,2.249 1.543,3.123 0.707,0.875 1.514,1.47 2.422,1.787 0.908,0.316 1.869,0.339 2.883,0.069 L 2.297,5.337 C 0.564,5.798 -0.578,4.993 -1.129,2.922 -1.334,2.153 -1.338,1.511 -1.139,0.997 -0.941,0.481 -0.562,0.149 0,0" /></g></g></g></g></svg>