<?xml version="1.0" encoding="UTF-8" standalone="no"?>
<svg
   xmlns:dc="http://purl.org/dc/elements/1.1/"
   xmlns:cc="http://creativecommons.org/ns#"
   xmlns:rdf="http://www.w3.org/1999/02/22-rdf-syntax-ns#"
   xmlns:svg="http://www.w3.org/2000/svg"
   xmlns="http://www.w3.org/2000/svg"
   viewBox="0 0 269.33334 272"
   height="272"
   width="269.33334"
   xml:space="preserve"
   id="svg2"
   version="1.1"><metadata
     id="metadata8"><rdf:RDF><cc:Work
         rdf:about=""><dc:format>image/svg+xml</dc:format><dc:type
           rdf:resource="http://purl.org/dc/dcmitype/StillImage" /></cc:Work></rdf:RDF></metadata><defs
     id="defs6"><clipPath
       id="clipPath18"
       clipPathUnits="userSpaceOnUse"><path
         id="path16"
         d="M 0,204 H 202 V 0 H 0 Z" /></clipPath></defs><g
     transform="matrix(1.3333333,0,0,-1.3333333,0,272)"
     id="g10"><g
       id="g12"><g
         clip-path="url(#clipPath18)"
         id="g14"><g
           transform="translate(101.5,168.2524)"
           id="g20"><path
             id="path22"
             style="fill:#3d6ebf;fill-opacity:1;fill-rule:nonzero;stroke:none"
             d="m 0,0 c -37.14,0 -67.248,-30.108 -67.248,-67.248 0,-37.141 30.108,-67.249 67.248,-67.249 37.14,0 67.248,30.108 67.248,67.249 C 67.248,-30.108 37.14,0 0,0 m 95.995,-67.248 c 0,-53.017 -42.978,-95.996 -95.995,-95.996 -53.017,0 -95.995,42.979 -95.995,95.996 0,53.016 42.978,95.995 95.995,95.995 53.017,0 95.995,-42.979 95.995,-95.995" /></g><g
           transform="translate(69.5693,29.8633)"
           id="g24"><path
             id="path26"
             style="fill:#ffffff;fill-opacity:1;fill-rule:nonzero;stroke:none"
             d="m 0,0 c -0.238,-0.588 -0.214,-1.123 0.073,-1.606 0.289,-0.484 0.901,-1.119 1.839,-1.905 0.937,-0.787 1.651,-1.478 2.144,-2.072 1.34,-1.622 1.693,-3.219 1.056,-4.789 -0.332,-0.816 -0.856,-1.45 -1.576,-1.904 -0.719,-0.454 -1.582,-0.687 -2.59,-0.698 -1.008,-0.009 -2.047,0.203 -3.119,0.637 -1.08,0.437 -1.962,1.023 -2.647,1.755 -0.686,0.733 -1.118,1.551 -1.296,2.453 -0.178,0.901 -0.084,1.806 0.283,2.712 l 3.114,-1.262 c -0.28,-0.691 -0.28,-1.318 -0.001,-1.879 0.282,-0.56 0.815,-1.001 1.604,-1.32 0.762,-0.309 1.419,-0.387 1.97,-0.236 0.553,0.15 0.935,0.488 1.148,1.013 0.2,0.493 0.12,1.003 -0.241,1.537 -0.36,0.532 -0.961,1.139 -1.806,1.819 -1.556,1.251 -2.577,2.434 -3.067,3.551 -0.491,1.117 -0.496,2.263 -0.02,3.44 0.529,1.307 1.44,2.132 2.731,2.475 C 0.89,4.063 2.372,3.896 4.047,3.218 5.209,2.746 6.181,2.104 6.964,1.293 7.746,0.479 8.238,-0.398 8.439,-1.342 8.642,-2.285 8.544,-3.245 8.149,-4.221 L 5.024,-2.955 C 5.7,-1.287 5.042,-0.049 3.05,0.758 2.31,1.059 1.671,1.142 1.134,1.009 0.597,0.875 0.219,0.539 0,0" /></g><g
           transform="translate(63.502,37.9111)"
           id="g28"><path
             id="path30"
             style="fill:#ffffff;fill-opacity:1;fill-rule:nonzero;stroke:none"
             d="m 0,0 2.912,-1.673 -8.117,-14.139 -2.914,1.672 z" /></g><g
           transform="translate(51.9063,40.875)"
           id="g32"><path
             id="path34"
             style="fill:#ffffff;fill-opacity:1;fill-rule:nonzero;stroke:none"
             d="m 0,0 c -0.386,-0.503 -0.505,-1.025 -0.356,-1.568 0.147,-0.541 0.569,-1.317 1.263,-2.326 0.695,-1.007 1.198,-1.864 1.515,-2.568 0.859,-1.921 0.773,-3.553 -0.26,-4.897 -0.536,-0.699 -1.211,-1.17 -2.025,-1.416 -0.815,-0.246 -1.709,-0.239 -2.682,0.019 -0.975,0.258 -1.92,0.739 -2.838,1.444 -0.924,0.709 -1.617,1.509 -2.083,2.398 -0.466,0.89 -0.664,1.792 -0.595,2.709 0.069,0.917 0.401,1.763 0.997,2.539 L -4.4,-5.712 c -0.454,-0.592 -0.622,-1.196 -0.502,-1.811 0.121,-0.616 0.519,-1.182 1.194,-1.7 0.651,-0.501 1.264,-0.752 1.836,-0.754 0.573,-0.002 1.032,0.222 1.377,0.672 0.323,0.421 0.382,0.936 0.177,1.545 -0.205,0.609 -0.624,1.354 -1.256,2.235 -1.165,1.62 -1.836,3.033 -2.01,4.24 -0.175,1.207 0.125,2.314 0.898,3.32 0.859,1.119 1.957,1.672 3.291,1.658 C 1.941,3.68 3.325,3.122 4.758,2.022 5.753,1.259 6.52,0.381 7.057,-0.611 7.594,-1.602 7.834,-2.58 7.777,-3.542 7.72,-4.506 7.371,-5.405 6.729,-6.24 L 4.056,-4.187 C 5.152,-2.76 4.847,-1.392 3.143,-0.083 2.508,0.403 1.916,0.655 1.361,0.67 0.81,0.686 0.355,0.462 0,0" /></g><g
           transform="translate(32.4199,47.4951)"
           id="g36"><path
             id="path38"
             style="fill:#ffffff;fill-opacity:1;fill-rule:nonzero;stroke:none"
             d="M 0,0 3.334,-3.719 13.447,5.348 15.69,2.847 5.576,-6.221 8.865,-9.889 6.84,-11.705 -2.025,-1.816 Z" /></g><g
           transform="translate(30.752,62.2744)"
           id="g40"><path
             id="path42"
             style="fill:#ffffff;fill-opacity:1;fill-rule:nonzero;stroke:none"
             d="m 0,0 3.386,-5.49 3.717,2.294 -3.974,6.442 2.297,1.417 5.738,-9.302 -13.877,-8.559 -5.726,9.284 2.316,1.428 3.963,-6.424 3.306,2.039 -3.385,5.491 z" /></g><g
           transform="translate(18.5742,66.6392)"
           id="g44"><path
             id="path46"
             style="fill:#ffffff;fill-opacity:1;fill-rule:nonzero;stroke:none"
             d="M 0,0 9.778,7.86 -2.759,7.886 -4.216,12.049 11.172,17.434 12.285,14.253 8.08,12.782 0.707,10.558 13.629,10.417 14.391,8.24 4.383,0.087 11.523,2.942 15.729,4.414 16.839,1.242 1.45,-4.143 Z" /></g><g
           transform="translate(23.0342,89.9126)"
           id="g48"><path
             id="path50"
             style="fill:#ffffff;fill-opacity:1;fill-rule:nonzero;stroke:none"
             d="M 0,0 -0.419,4.054 -6.278,1.388 Z M 2.194,5.237 2.8,-0.623 6.257,-1.39 6.625,-4.942 -10.217,-0.584 -10.538,2.511 5.051,10.26 5.419,6.707 Z" /></g><g
           transform="translate(24.7695,109.7695)"
           id="g52"><path
             id="path54"
             style="fill:#ffffff;fill-opacity:1;fill-rule:nonzero;stroke:none"
             d="m 0,0 c -0.632,0.057 -1.137,-0.123 -1.516,-0.538 -0.378,-0.417 -0.806,-1.187 -1.287,-2.314 -0.478,-1.126 -0.931,-2.011 -1.356,-2.654 -1.161,-1.756 -2.587,-2.557 -4.274,-2.405 -0.878,0.078 -1.638,0.395 -2.282,0.951 -0.642,0.557 -1.116,1.315 -1.42,2.275 -0.303,0.961 -0.404,2.017 -0.301,3.17 0.104,1.16 0.408,2.174 0.909,3.043 0.502,0.87 1.158,1.521 1.968,1.954 0.811,0.434 1.704,0.607 2.678,0.519 L -7.182,0.655 C -7.924,0.722 -8.523,0.54 -8.979,0.108 c -0.455,-0.431 -0.719,-1.07 -0.796,-1.919 -0.073,-0.817 0.043,-1.468 0.347,-1.954 0.306,-0.483 0.741,-0.751 1.307,-0.801 0.527,-0.048 0.994,0.178 1.398,0.677 0.405,0.5 0.809,1.253 1.214,2.258 0.743,1.852 1.577,3.175 2.503,3.969 0.926,0.794 2.022,1.135 3.285,1.021 C 1.684,3.232 2.739,2.603 3.443,1.468 4.146,0.333 4.418,-1.134 4.257,-2.934 4.145,-4.183 3.813,-5.3 3.264,-6.285 2.715,-7.271 2.02,-7.996 1.175,-8.464 0.331,-8.932 -0.616,-9.119 -1.664,-9.025 l 0.302,3.358 c 1.792,-0.161 2.784,0.829 2.975,2.971 0.072,0.795 -0.035,1.43 -0.318,1.905 C 1.012,-0.315 0.58,-0.052 0,0" /></g><g
           transform="translate(26.4082,131.8779)"
           id="g56"><path
             id="path58"
             style="fill:#ffffff;fill-opacity:1;fill-rule:nonzero;stroke:none"
             d="M 0,0 C -1.599,0.604 -2.922,0.777 -3.97,0.519 -5.018,0.26 -5.741,-0.4 -6.143,-1.462 c -0.398,-1.055 -0.294,-2.023 0.309,-2.906 0.605,-0.882 1.697,-1.626 3.281,-2.233 l 0.743,-0.281 c 1.558,-0.588 2.874,-0.758 3.949,-0.51 1.076,0.248 1.816,0.911 2.222,1.986 0.399,1.053 0.291,2.02 -0.322,2.899 -0.615,0.878 -1.713,1.62 -3.295,2.226 z M 1.895,2.923 C 3.396,2.355 4.611,1.594 5.543,0.636 6.474,-0.323 7.06,-1.412 7.301,-2.632 7.542,-3.853 7.421,-5.102 6.938,-6.379 6.461,-7.644 5.73,-8.657 4.748,-9.419 3.767,-10.181 2.609,-10.622 1.275,-10.74 c -1.334,-0.118 -2.735,0.095 -4.204,0.642 l -0.755,0.285 c -1.5,0.568 -2.72,1.337 -3.657,2.31 -0.937,0.973 -1.524,2.068 -1.763,3.288 -0.238,1.219 -0.117,2.463 0.364,3.735 0.48,1.27 1.212,2.284 2.197,3.042 0.984,0.757 2.148,1.191 3.495,1.3 1.347,0.11 2.767,-0.117 4.261,-0.681 z" /></g><g
           transform="translate(31.0459,140.8599)"
           id="g60"><path
             id="path62"
             style="fill:#ffffff;fill-opacity:1;fill-rule:nonzero;stroke:none"
             d="M 0,0 1.597,2.541 C 2.069,3.293 2.253,3.978 2.147,4.596 2.042,5.213 1.659,5.728 1.002,6.141 0.326,6.566 -0.347,6.711 -1.013,6.575 -1.681,6.438 -2.241,6.024 -2.694,5.331 L -4.333,2.723 Z M 2.304,-1.448 7.167,-4.504 5.38,-7.348 -8.424,1.327 -5.04,6.712 c 0.651,1.037 1.414,1.83 2.287,2.378 0.875,0.549 1.794,0.815 2.758,0.8 C 0.97,9.875 1.897,9.586 2.789,9.026 4.142,8.176 4.917,7.042 5.115,5.626 5.314,4.209 4.899,2.683 3.87,1.046 Z" /></g><g
           transform="translate(45.541,157.2817)"
           id="g64"><path
             id="path66"
             style="fill:#ffffff;fill-opacity:1;fill-rule:nonzero;stroke:none"
             d="m 0,0 -4.35,-4.763 3.225,-2.945 5.104,5.59 1.994,-1.82 -7.37,-8.07 -12.041,10.993 7.356,8.055 2.009,-1.836 -5.089,-5.573 2.869,-2.62 4.35,4.763 z" /></g><g
           transform="translate(49.8984,163.1699)"
           id="g68"><path
             id="path70"
             style="fill:#ffffff;fill-opacity:1;fill-rule:nonzero;stroke:none"
             d="M 0,0 2.158,1.638 C 2.83,2.148 3.221,2.715 3.33,3.336 3.438,3.958 3.266,4.568 2.809,5.169 2.344,5.781 1.805,6.131 1.19,6.218 0.576,6.305 -0.09,6.074 -0.81,5.529 L -2.959,3.896 Z M 3.777,-0.549 1.646,-2.168 5.254,-6.921 2.579,-8.952 -7.279,4.032 -2.455,7.695 C -0.922,8.86 0.521,9.417 1.873,9.365 3.225,9.313 4.375,8.664 5.322,7.415 5.994,6.528 6.363,5.645 6.43,4.762 6.496,3.879 6.271,2.967 5.76,2.025 l 6.838,-3.174 0.094,-0.124 -2.871,-2.181 z" /></g><g
           transform="translate(64.7744,169.7822)"
           id="g72"><path
             id="path74"
             style="fill:#ffffff;fill-opacity:1;fill-rule:nonzero;stroke:none"
             d="m 0,0 3.666,1.779 -4.509,4.595 z m 5.671,-0.272 -5.299,-2.573 0.46,-3.51 -3.213,-1.562 -1.661,17.318 2.799,1.36 L 11.368,-1.24 8.155,-2.8 Z" /></g><g
           transform="translate(87.7129,177.0869)"
           id="g76"><path
             id="path78"
             style="fill:#ffffff;fill-opacity:1;fill-rule:nonzero;stroke:none"
             d="m 0,0 c 0.322,-1.729 0.047,-3.229 -0.826,-4.5 -0.875,-1.271 -2.237,-2.15 -4.084,-2.636 -2.022,-0.53 -3.791,-0.267 -5.307,0.79 -1.516,1.056 -2.586,2.773 -3.21,5.148 l -0.253,0.964 c -0.398,1.516 -0.481,2.922 -0.251,4.217 0.232,1.296 0.763,2.383 1.593,3.261 0.83,0.878 1.903,1.489 3.217,1.834 1.82,0.478 3.414,0.375 4.781,-0.307 1.369,-0.683 2.37,-1.882 3.006,-3.599 L -4.584,4.319 C -4.93,5.316 -5.407,5.98 -6.015,6.311 -6.623,6.642 -7.424,6.676 -8.422,6.414 -9.504,6.13 -10.213,5.529 -10.547,4.611 c -0.334,-0.917 -0.294,-2.193 0.12,-3.829 l 0.313,-1.192 c 0.447,-1.703 1.032,-2.882 1.755,-3.532 0.722,-0.652 1.64,-0.832 2.752,-0.54 1.003,0.263 1.693,0.689 2.066,1.278 0.375,0.588 0.473,1.372 0.293,2.351 z" /></g><g
           transform="translate(94.3262,172.2178)"
           id="g80"><path
             id="path82"
             style="fill:#ffffff;fill-opacity:1;fill-rule:nonzero;stroke:none"
             d="m 0,0 -3.336,-0.389 -1.885,16.195 3.336,0.388 z" /></g><g
           transform="translate(107.1016,180.8828)"
           id="g84"><path
             id="path86"
             style="fill:#ffffff;fill-opacity:1;fill-rule:nonzero;stroke:none"
             d="M 0,0 C 0.053,1.708 -0.213,3.017 -0.797,3.924 -1.382,4.83 -2.241,5.302 -3.375,5.337 -4.502,5.371 -5.385,4.96 -6.023,4.103 -6.662,3.244 -7.013,1.969 -7.072,0.275 L -7.098,-0.52 c -0.05,-1.664 0.215,-2.964 0.799,-3.9 0.584,-0.937 1.449,-1.423 2.6,-1.459 1.126,-0.035 2.005,0.381 2.637,1.247 0.631,0.864 0.978,2.144 1.037,3.839 z M 3.379,-0.844 C 3.33,-2.448 3.002,-3.845 2.398,-5.037 1.793,-6.228 0.953,-7.135 -0.123,-7.759 -1.199,-8.383 -2.42,-8.674 -3.785,-8.632 c -1.351,0.042 -2.545,0.403 -3.585,1.086 -1.04,0.682 -1.831,1.634 -2.376,2.857 -0.545,1.223 -0.797,2.618 -0.756,4.186 l 0.025,0.805 c 0.05,1.605 0.382,3.008 0.998,4.21 0.616,1.202 1.463,2.113 2.538,2.733 1.077,0.621 2.294,0.91 3.652,0.868 C -1.932,8.07 -0.734,7.706 0.301,7.021 1.336,6.335 2.125,5.374 2.665,4.136 3.205,2.898 3.451,1.481 3.402,-0.116 Z" /></g><g
           transform="translate(124.7441,168.8457)"
           id="g88"><path
             id="path90"
             style="fill:#ffffff;fill-opacity:1;fill-rule:nonzero;stroke:none"
             d="m 0,0 -3.262,0.801 -3.79,11.978 -2.559,-10.417 -3.264,0.802 3.893,15.832 3.261,-0.802 3.795,-12.002 2.567,10.439 3.251,-0.8 z" /></g><g
           transform="translate(133.3672,171.6504)"
           id="g92"><path
             id="path94"
             style="fill:#ffffff;fill-opacity:1;fill-rule:nonzero;stroke:none"
             d="M 0,0 3.668,-1.778 4.485,4.607 Z M 3.297,-4.622 -2.002,-2.053 -4.476,-4.588 -7.689,-3.03 4.883,8.994 7.684,7.637 6.064,-9.696 2.851,-8.138 Z" /></g><g
           transform="translate(142.9844,159.1045)"
           id="g96"><path
             id="path98"
             style="fill:#ffffff;fill-opacity:1;fill-rule:nonzero;stroke:none"
             d="M 0,0 -2.754,1.923 6.578,15.292 9.332,13.37 Z" /></g><g
           transform="translate(154.3809,155.2812)"
           id="g100"><path
             id="path102"
             style="fill:#ffffff;fill-opacity:1;fill-rule:nonzero;stroke:none"
             d="m 0,0 c 0.422,0.474 0.58,0.986 0.473,1.538 -0.108,0.551 -0.47,1.356 -1.086,2.413 -0.617,1.057 -1.059,1.948 -1.321,2.674 -0.713,1.979 -0.505,3.601 0.624,4.864 0.587,0.657 1.295,1.077 2.126,1.261 0.83,0.185 1.721,0.111 2.673,-0.218 C 4.441,12.201 5.348,11.651 6.211,10.879 7.078,10.104 7.712,9.255 8.109,8.333 8.508,7.412 8.639,6.497 8.502,5.588 8.365,4.679 7.971,3.859 7.318,3.13 L 4.814,5.369 C 5.312,5.926 5.523,6.516 5.449,7.139 5.373,7.76 5.02,8.354 4.385,8.922 3.773,9.469 3.182,9.765 2.611,9.81 2.039,9.854 1.565,9.666 1.187,9.242 0.834,8.848 0.736,8.338 0.896,7.715 1.055,7.092 1.417,6.318 1.982,5.394 3.023,3.691 3.586,2.231 3.67,1.015 3.754,-0.202 3.373,-1.283 2.527,-2.229 1.588,-3.281 0.451,-3.751 -0.879,-3.638 c -1.331,0.114 -2.67,0.772 -4.016,1.977 -0.935,0.835 -1.634,1.767 -2.095,2.796 -0.463,1.029 -0.63,2.022 -0.5,2.977 0.129,0.957 0.543,1.828 1.244,2.612 L -3.732,4.478 C -4.932,3.137 -4.729,1.75 -3.127,0.317 -2.531,-0.215 -1.958,-0.51 -1.407,-0.566 -0.857,-0.622 -0.389,-0.434 0,0" /></g><g
           transform="translate(170.0684,136.7676)"
           id="g104"><path
             id="path106"
             style="fill:#ffffff;fill-opacity:1;fill-rule:nonzero;stroke:none"
             d="m 0,0 c -1.541,-0.848 -3.053,-1.056 -4.533,-0.624 -1.483,0.432 -2.742,1.449 -3.781,3.054 -1.138,1.754 -1.442,3.515 -0.913,5.287 0.529,1.77 1.824,3.323 3.884,4.66 l 0.837,0.542 c 1.315,0.852 2.625,1.373 3.927,1.559 1.304,0.185 2.501,0.022 3.596,-0.493 1.092,-0.514 2.01,-1.34 2.749,-2.48 C 6.789,9.926 7.19,8.381 6.971,6.867 6.75,5.354 5.924,4.027 4.494,2.887 L 2.666,5.705 C 3.505,6.347 3.986,7.009 4.109,7.688 4.232,8.369 4.015,9.142 3.455,10.006 2.845,10.945 2.053,11.43 1.076,11.46 0.101,11.491 -1.1,11.053 -2.522,10.148 L -3.557,9.478 C -5.034,8.52 -5.97,7.595 -6.362,6.705 -6.755,5.813 -6.638,4.887 -6.014,3.922 -5.449,3.051 -4.828,2.53 -4.152,2.359 -3.477,2.188 -2.701,2.341 -1.828,2.818 Z" /></g><g
           transform="translate(177.7285,126.2993)"
           id="g108"><path
             id="path110"
             style="fill:#ffffff;fill-opacity:1;fill-rule:nonzero;stroke:none"
             d="M 0,0 C 1.592,0.623 2.688,1.381 3.293,2.275 3.897,3.168 3.992,4.144 3.58,5.201 3.168,6.25 2.443,6.9 1.403,7.151 c -1.04,0.25 -2.349,0.07 -3.93,-0.54 L -3.268,6.321 C -4.818,5.715 -5.91,4.959 -6.541,4.054 -7.174,3.15 -7.279,2.162 -6.861,1.091 c 0.411,-1.049 1.138,-1.694 2.182,-1.936 1.044,-0.239 2.357,-0.055 3.938,0.555 z m 0.552,-3.439 c -1.495,-0.586 -2.909,-0.834 -4.241,-0.746 -1.334,0.088 -2.498,0.504 -3.496,1.248 -0.997,0.745 -1.743,1.753 -2.241,3.024 -0.492,1.259 -0.63,2.499 -0.411,3.723 0.219,1.225 0.783,2.327 1.693,3.31 0.912,0.981 2.095,1.761 3.552,2.338 l 0.751,0.293 c 1.494,0.585 2.915,0.832 4.263,0.739 C 1.77,10.395 2.939,9.974 3.934,9.229 4.926,8.483 5.67,7.478 6.166,6.212 6.66,4.947 6.796,3.705 6.573,2.482 6.35,1.261 5.775,0.158 4.85,-0.825 3.924,-1.809 2.717,-2.592 1.229,-3.174 Z" /></g><g
           transform="translate(188.373,116.4658)"
           id="g112"><path
             id="path114"
             style="fill:#ffffff;fill-opacity:1;fill-rule:nonzero;stroke:none"
             d="m 0,0 -11.129,-5.791 12.289,-2.482 0.613,-4.369 -16.146,-2.264 -0.468,3.338 4.413,0.618 7.666,0.736 -12.643,2.671 -0.321,2.284 11.412,6.033 -7.561,-1.399 -4.414,-0.619 -0.467,3.326 16.147,2.265 z" /></g><g
           transform="translate(181.8965,95.3877)"
           id="g116"><path
             id="path118"
             style="fill:#ffffff;fill-opacity:1;fill-rule:nonzero;stroke:none"
             d="m 0,0 -0.264,-2.989 c -0.078,-0.885 0.071,-1.578 0.446,-2.08 0.376,-0.501 0.95,-0.786 1.722,-0.854 0.797,-0.071 1.461,0.107 1.992,0.532 0.534,0.425 0.842,1.05 0.93,1.874 l 0.271,3.068 z M -2.711,0.239 -8.434,0.743 -8.139,4.09 8.103,2.658 7.544,-3.678 C 7.437,-4.896 7.119,-5.95 6.591,-6.837 6.062,-7.723 5.366,-8.379 4.5,-8.805 3.635,-9.23 2.678,-9.397 1.629,-9.306 c -1.591,0.141 -2.797,0.796 -3.62,1.967 -0.822,1.17 -1.149,2.718 -0.98,4.644 z" /></g><g
           transform="translate(177.4863,81.7373)"
           id="g120"><path
             id="path122"
             style="fill:#ffffff;fill-opacity:1;fill-rule:nonzero;stroke:none"
             d="m 0,0 -1.048,-3.938 6.425,0.41 z m -3.911,-4.115 1.515,5.693 -2.958,1.945 0.919,3.453 14.194,-10.061 -0.802,-3.008 -17.324,-1.701 0.919,3.451 z" /></g><g
           transform="translate(176.2324,57.6084)"
           id="g124"><path
             id="path126"
             style="fill:#ffffff;fill-opacity:1;fill-rule:nonzero;stroke:none"
             d="m 0,0 2.114,4.524 -12.305,5.751 1.422,3.043 L 3.536,7.567 5.622,12.031 8.088,10.879 2.465,-1.152 Z" /></g><g
           transform="translate(178.9941,48.9453)"
           id="g128"><path
             id="path130"
             style="fill:#ffffff;fill-opacity:1;fill-rule:nonzero;stroke:none"
             d="m 0,0 -1.912,-2.964 -1.236,4.487 1.426,2.211 z m -17.963,10.349 1.82,2.823 13.702,-8.839 -1.823,-2.822 z" /></g><g
           transform="translate(158.8672,49.8691)"
           id="g132"><path
             id="path134"
             style="fill:#ffffff;fill-opacity:1;fill-rule:nonzero;stroke:none"
             d="m 0,0 6.857,-10.815 -2.445,-2.829 -8.62,14.957 2.292,2.651 16.031,-6.385 -2.437,-2.82 z" /></g><g
           transform="translate(146.9336,34.8125)"
           id="g136"><path
             id="path138"
             style="fill:#ffffff;fill-opacity:1;fill-rule:nonzero;stroke:none"
             d="M 0,0 5.037,4.028 2.31,7.438 -3.602,2.711 -5.287,4.818 3.247,11.644 13.43,-1.089 4.912,-7.9 3.213,-5.775 9.107,-1.062 6.68,1.973 1.644,-2.056 Z" /></g><g
           transform="translate(137.2461,37.1548)"
           id="g140"><path
             id="path142"
             style="fill:#ffffff;fill-opacity:1;fill-rule:nonzero;stroke:none"
             d="m 0,0 2.871,1.743 8.463,-13.935 -2.871,-1.743 z" /></g><g
           transform="translate(129.0352,28.4453)"
           id="g144"><path
             id="path146"
             style="fill:#ffffff;fill-opacity:1;fill-rule:nonzero;stroke:none"
             d="m 0,0 c 0.254,-0.582 0.653,-0.94 1.199,-1.074 0.546,-0.132 1.429,-0.139 2.647,-0.022 1.218,0.118 2.213,0.146 2.98,0.08 2.098,-0.179 3.483,-1.047 4.158,-2.6 0.352,-0.809 0.437,-1.628 0.256,-2.458 -0.179,-0.832 -0.619,-1.611 -1.317,-2.338 -0.697,-0.726 -1.577,-1.319 -2.638,-1.78 -1.068,-0.465 -2.103,-0.685 -3.107,-0.661 -1.004,0.025 -1.89,0.289 -2.658,0.793 -0.768,0.504 -1.348,1.206 -1.738,2.102 l 3.081,1.339 c 0.298,-0.685 0.744,-1.124 1.342,-1.317 0.596,-0.192 1.284,-0.119 2.066,0.22 0.752,0.327 1.268,0.741 1.547,1.241 0.28,0.499 0.307,1.01 0.08,1.531 -0.211,0.485 -0.632,0.787 -1.264,0.903 -0.633,0.115 -1.488,0.11 -2.564,-0.016 -1.982,-0.233 -3.543,-0.134 -4.683,0.298 -1.141,0.432 -1.963,1.231 -2.469,2.395 -0.563,1.294 -0.514,2.521 0.146,3.683 0.66,1.161 1.817,2.102 3.475,2.823 C 1.688,5.641 2.828,5.885 3.955,5.874 5.083,5.864 6.055,5.6 6.869,5.083 7.684,4.566 8.301,3.825 8.721,2.859 L 5.629,1.517 C 4.912,3.167 3.568,3.563 1.596,2.707 0.863,2.389 0.355,1.991 0.074,1.515 -0.207,1.039 -0.23,0.533 0,0" /></g></g></g></g></svg>